<svg width="25" height="24" viewBox="0 0 25 24" fill="none" xmlns="http://www.w3.org/2000/svg">
<g clip-path="url(#clip0_204_3746)">
<path d="M20.8303 4.22781C19.2767 3.50093 17.6156 2.97267 15.8789 2.67188C15.6656 3.05749 15.4164 3.57614 15.2446 3.98873C13.3985 3.71109 11.5693 3.71109 9.75716 3.98873C9.58539 3.57614 9.33055 3.05749 9.11536 2.67188C7.37681 2.97267 5.71376 3.50287 4.16019 4.23166C1.02664 8.96686 0.177189 13.5845 0.601917 18.1365C2.68025 19.6885 4.69441 20.6313 6.67457 21.2483C7.16349 20.5754 7.59953 19.8601 7.97518 19.1063C7.25975 18.8344 6.57453 18.499 5.92707 18.1095C6.09884 17.9822 6.26686 17.8492 6.42918 17.7123C10.3782 19.5594 14.6689 19.5594 18.5707 17.7123C18.735 17.8492 18.903 17.9822 19.0728 18.1095C18.4235 18.5009 17.7364 18.8363 17.021 19.1082C17.3966 19.8601 17.8308 20.5774 18.3216 21.2502C20.3036 20.6333 22.3197 19.6905 24.398 18.1365C24.8964 12.8595 23.5467 8.28434 20.8303 4.22781ZM8.51318 15.337C7.32772 15.337 6.35555 14.2303 6.35555 12.8826C6.35555 11.535 7.30696 10.4264 8.51318 10.4264C9.71942 10.4264 10.6916 11.533 10.6708 12.8826C10.6727 14.2303 9.71942 15.337 8.51318 15.337ZM16.4867 15.337C15.3013 15.337 14.3291 14.2303 14.3291 12.8826C14.3291 11.535 15.2805 10.4264 16.4867 10.4264C17.693 10.4264 18.6651 11.533 18.6444 12.8826C18.6444 14.2303 17.693 15.337 16.4867 15.337Z" fill="white"/>
</g>
<defs>
<clipPath id="clip0_204_3746">
<rect width="24" height="24" fill="white" transform="translate(0.5)"/>
</clipPath>
</defs>
</svg>
