<svg width="24" height="31" viewBox="0 0 24 31" fill="none" xmlns="http://www.w3.org/2000/svg">
<path d="M20.2699 15.485L20.9754 19.5648C21.1516 20.5838 20.368 21.5158 19.335 21.5158H14.1539C13.6404 21.5158 13.2494 21.9767 13.3325 22.484L13.9952 26.5286C14.1028 27.1857 14.0721 27.858 13.9049 28.5025C13.7664 29.0364 13.3545 29.465 12.8128 29.6391L12.6678 29.6856C12.3404 29.7908 11.9831 29.7663 11.6744 29.6176C11.3347 29.4539 11.0861 29.1553 10.994 28.8001L10.5183 26.9663C10.3669 26.3828 10.1465 25.8195 9.86218 25.2874C9.44683 24.5098 8.80465 23.8875 8.13711 23.3123L6.69838 22.0725C6.29272 21.7229 6.07968 21.1994 6.12584 20.6656L6.93801 11.2729C7.0125 10.4114 7.7328 9.75 8.59658 9.75H13.2452C16.7265 9.75 19.6975 12.1756 20.2699 15.485Z" fill="white"/>
<path fill-rule="evenodd" clip-rule="evenodd" d="M2.96767 22.2651C3.36893 22.2824 3.71261 21.9806 3.74721 21.5804L4.71881 10.3439C4.78122 9.6221 4.21268 9 3.48671 9C2.80289 9 2.25 9.55474 2.25 10.2373V21.5158C2.25 21.9174 2.5664 22.2478 2.96767 22.2651Z" fill="white"/>
</svg>
