<svg width="25" height="24" viewBox="0 0 25 24" fill="none" xmlns="http://www.w3.org/2000/svg">
<path d="M10.3333 4.5V18C10.3333 19.08 9.89324 20.07 9.19324 20.79L9.15326 20.83C9.06326 20.92 8.96326 21.01 8.87326 21.08C8.57326 21.34 8.23324 21.54 7.88324 21.68C7.77324 21.73 7.66325 21.77 7.55325 21.81C7.16325 21.94 6.74325 22 6.33325 22C6.06325 22 5.79326 21.97 5.53326 21.92C5.40326 21.89 5.27325 21.86 5.14325 21.82C4.98325 21.77 4.83326 21.72 4.68326 21.65C4.68326 21.64 4.68325 21.64 4.67325 21.65C4.39325 21.51 4.12326 21.35 3.87326 21.16L3.86325 21.15C3.73325 21.05 3.61327 20.95 3.50327 20.83C3.39327 20.71 3.28325 20.59 3.17325 20.46C2.98325 20.21 2.82326 19.94 2.68326 19.66C2.69326 19.65 2.69326 19.65 2.68326 19.65C2.68326 19.65 2.68325 19.64 2.67325 19.63C2.61325 19.49 2.56324 19.34 2.51324 19.19C2.47324 19.06 2.44324 18.93 2.41324 18.8C2.36324 18.54 2.33325 18.27 2.33325 18V4.5C2.33325 3 3.33325 2 4.83325 2H7.83325C9.33325 2 10.3333 3 10.3333 4.5Z" stroke="#FF3654" stroke-width="2" stroke-linecap="round" stroke-linejoin="round"/>
<path d="M22.3333 16.5V19.5C22.3333 21 21.3333 22 19.8333 22H6.33325C6.74325 22 7.16325 21.94 7.55325 21.81C7.66325 21.77 7.77324 21.73 7.88324 21.68C8.23324 21.54 8.57326 21.34 8.87326 21.08C8.96326 21.01 9.06326 20.92 9.15326 20.83L9.19324 20.79L15.9933 14H19.8333C21.3333 14 22.3333 15 22.3333 16.5Z" stroke="#FF3654" stroke-width="2" stroke-linecap="round" stroke-linejoin="round"/>
<path d="M5.14325 21.82C4.54325 21.64 3.97327 21.31 3.50327 20.83C3.02327 20.36 2.69324 19.79 2.51324 19.19C2.90324 20.44 3.89325 21.43 5.14325 21.82Z" stroke="#FF3654" stroke-width="2" stroke-linecap="round" stroke-linejoin="round"/>
<path d="M18.7032 11.29L15.9933 14L9.19324 20.79C9.89324 20.07 10.3333 19.08 10.3333 18V8.34L13.0432 5.63001C14.1032 4.57001 15.5233 4.57001 16.5833 5.63001L18.7032 7.75C19.7632 8.81 19.7632 10.23 18.7032 11.29Z" stroke="#FF3654" stroke-width="2" stroke-linecap="round" stroke-linejoin="round"/>
</svg>
