<svg width="25" height="24" viewBox="0 0 25 24" fill="none" xmlns="http://www.w3.org/2000/svg">
<path d="M9.49325 10.87C9.39325 10.86 9.27325 10.86 9.16325 10.87C6.78325 10.79 4.89325 8.84 4.89325 6.44C4.89325 3.99 6.87325 2 9.33325 2C11.7832 2 13.7732 3.99 13.7732 6.44C13.7632 8.84 11.8732 10.79 9.49325 10.87Z" stroke="#FF3654" stroke-width="2" stroke-linecap="round" stroke-linejoin="round"/>
<path d="M16.7433 4C18.6833 4 20.2433 5.57 20.2433 7.5C20.2433 9.39 18.7433 10.93 16.8733 11C16.7933 10.99 16.7033 10.99 16.6133 11" stroke="#FF3654" stroke-width="2" stroke-linecap="round" stroke-linejoin="round"/>
<path d="M4.49322 14.56C2.07322 16.18 2.07322 18.82 4.49322 20.43C7.24322 22.27 11.7532 22.27 14.5032 20.43C16.9232 18.81 16.9232 16.17 14.5032 14.56C11.7632 12.73 7.25322 12.73 4.49322 14.56Z" stroke="#FF3654" stroke-width="2" stroke-linecap="round" stroke-linejoin="round"/>
<path d="M18.6733 20C19.3933 19.85 20.0733 19.56 20.6333 19.13C22.1933 17.96 22.1933 16.03 20.6333 14.86C20.0833 14.44 19.4133 14.16 18.7033 14" stroke="#FF3654" stroke-width="2" stroke-linecap="round" stroke-linejoin="round"/>
</svg>
