<svg width="25" height="24" viewBox="0 0 25 24" fill="none" xmlns="http://www.w3.org/2000/svg">
<path d="M22.3333 11.1V6.9C22.3333 3.4 20.9333 2 17.4333 2H13.2333C9.73325 2 8.33325 3.4 8.33325 6.9V8H11.4333C14.9333 8 16.3333 9.4 16.3333 12.9V16H17.4333C20.9333 16 22.3333 14.6 22.3333 11.1Z" stroke="#FF3654" stroke-width="2" stroke-linecap="round" stroke-linejoin="round"/>
<path d="M16.3333 17.1V12.9C16.3333 9.4 14.9333 8 11.4333 8H7.23325C3.73325 8 2.33325 9.4 2.33325 12.9V17.1C2.33325 20.6 3.73325 22 7.23325 22H11.4333C14.9333 22 16.3333 20.6 16.3333 17.1Z" stroke="#FF3654" stroke-width="2" stroke-linecap="round" stroke-linejoin="round"/>
<path d="M6.41333 15L8.36333 16.95L12.2533 13.05" stroke="#FF3654" stroke-width="2" stroke-linecap="round" stroke-linejoin="round"/>
</svg>
