<svg width="24" height="31" viewBox="0 0 24 31" fill="none" xmlns="http://www.w3.org/2000/svg">
<path d="M3.73039 16.265L3.02485 12.1852C2.84863 11.1662 3.63226 10.2342 4.66523 10.2342H9.84632C10.3598 10.2342 10.7509 9.77328 10.6677 9.26598L10.0051 5.22142C9.8974 4.56435 9.92815 3.892 10.0953 3.24752C10.2338 2.71364 10.6457 2.28495 11.1874 2.11093L11.3324 2.06435C11.6598 1.95918 12.0171 1.98365 12.3258 2.13239C12.6656 2.29611 12.9141 2.59473 13.0062 2.94989L13.482 4.78374C13.6333 5.36723 13.8538 5.93045 14.1381 6.46262C14.5534 7.24017 15.1956 7.86246 15.8631 8.43769L17.3019 9.67749C17.7075 10.0271 17.9206 10.5506 17.8744 11.0844L17.0622 20.4771C16.9877 21.3386 16.2674 22 15.4037 22H10.755C7.27375 22 4.30271 19.5744 3.73039 16.265Z" fill="white"/>
<path fill-rule="evenodd" clip-rule="evenodd" d="M21.0323 9.48508C20.6311 9.46777 20.2874 9.76963 20.2528 10.1698L19.2812 21.4063C19.2188 22.1281 19.7873 22.7502 20.5133 22.7502C21.1971 22.7502 21.75 22.1954 21.75 21.5129V10.2344C21.75 9.83275 21.4336 9.5024 21.0323 9.48508Z" fill="white"/>
</svg>
