<svg width="64" height="64" viewBox="0 0 64 64" fill="none" xmlns="http://www.w3.org/2000/svg">
<path d="M27.5718 8L38.7918 44.6211H39.2082L50.4282 8H64L47.072 58H30.928L14 8H27.5718Z" fill="black"/>
<path d="M8.0002 58C5.78487 58 3.88748 57.216 2.30803 55.648C0.749099 54.08 -0.0201127 52.1818 0.00039959 49.9536C-0.0201127 47.7666 0.749099 45.8994 2.30803 44.352C3.88748 42.784 5.78487 42 8.0002 42C10.0925 42 11.9386 42.784 13.5385 44.352C15.159 45.8994 15.9795 47.7666 16 49.9536C15.9795 51.4391 15.5898 52.7905 14.8308 54.0077C14.0924 55.225 13.118 56.1947 11.9078 56.9168C10.7181 57.6389 9.41555 58 8.0002 58Z" fill="#FF3654"/>
</svg>
