<svg width="80" height="80" viewBox="0 0 80 80" fill="none" xmlns="http://www.w3.org/2000/svg">
  <rect width="80" height="80" rx="40" fill="#4A90E2"/>
  <path d="M40 24C31.1634 24 24 31.1634 24 40C24 48.8366 31.1634 56 40 56C48.8366 56 56 48.8366 56 40C56 31.1634 48.8366 24 40 24ZM40 32C42.9455 32 45.3333 34.3878 45.3333 37.3333C45.3333 40.2789 42.9455 42.6667 40 42.6667C37.0545 42.6667 34.6667 40.2789 34.6667 37.3333C34.6667 34.3878 37.0545 32 40 32ZM40 50.6667C36 50.6667 32.4 48.8 30.6667 45.8667C30.7111 42.9333 36.5333 41.3333 40 41.3333C43.4667 41.3333 49.2889 42.9333 49.3333 45.8667C47.6 48.8 44 50.6667 40 50.6667Z" fill="white"/>
</svg> 