<svg width="288" height="288" viewBox="0 0 288 288" fill="none" xmlns="http://www.w3.org/2000/svg">
<rect width="288" height="288" fill="white"/>
<path d="M120 150.317V167.087C132.753 167.087 145.004 162.167 154.042 153.43C163.08 144.694 168.201 132.744 168.201 120.393H150.929C150.929 128.326 147.615 135.958 141.891 141.581C136.067 147.104 128.235 150.317 120 150.317Z" fill="#3BE081"/>
<path d="M120 196.509C111.866 196.509 104.033 193.396 98.3094 187.773C92.5856 182.15 89.2718 174.618 89.2718 166.685C89.2718 158.752 92.4852 151.221 98.3094 145.598C104.033 139.974 111.866 136.861 120 136.861V120.192C113.673 120.192 107.447 121.397 101.724 123.707C95.8994 126.016 90.6777 129.43 86.1589 133.748C81.7405 138.066 78.1255 143.188 75.7154 148.811C73.3054 154.434 72.1004 160.459 72 166.585C72 172.71 73.205 178.735 75.615 184.359C78.0251 189.982 81.5397 195.103 85.958 199.421C90.3764 203.739 95.6986 207.154 101.523 209.463C107.347 211.773 113.573 212.978 119.799 212.978H119.899V196.509H120Z" fill="#0037FF"/>
<path d="M120 196.509V213.179C132.653 213.179 144.904 208.258 153.841 199.622C162.778 190.986 167.9 179.137 167.9 166.786H150.728C150.728 174.719 147.515 182.25 141.691 187.873C135.967 193.296 128.134 196.409 120 196.509Z" fill="#00CCFF"/>
<path d="M120 103.724V120.393C132.653 120.393 144.904 115.472 153.841 106.837C162.778 98.1002 167.9 86.3514 167.9 74H150.728C150.728 81.933 147.515 89.4643 141.691 95.0877C135.967 100.51 128.134 103.724 120 103.724Z" fill="#861DFF"/>
<path d="M168.101 103.724V120.393C180.753 120.393 193.004 115.472 201.942 106.837C210.879 98.1002 216 86.3514 216 74H198.829C198.829 81.933 195.615 89.4643 189.791 95.0877C184.067 100.51 176.335 103.724 168.101 103.724Z" fill="#FF8110"/>
</svg>
